<?xml version="1.0" encoding="UTF-8"?>
<svg version="1.1" xmlns="http://www.w3.org/2000/svg" width="1920" height="1170">
<path d="M0 0 C633.6 0 1267.2 0 1920 0 C1920 386.1 1920 772.2 1920 1170 C1286.4 1170 652.8 1170 0 1170 C0 783.9 0 397.8 0 0 Z " fill="#FEFEFE" transform="translate(0,0)"/>
<path d="M0 0 C1.07335098 -0.00619858 2.14670197 -0.01239716 3.25257874 -0.01878357 C5.51074319 -0.02585191 7.76896009 -0.02276032 10.02709961 -0.01000977 C13.45980822 0.00385436 16.88978657 -0.03026168 20.32226562 -0.06835938 C22.52734441 -0.06931077 24.73242657 -0.06745067 26.9375 -0.0625 C27.95134262 -0.07575821 28.96518524 -0.08901642 30.00975037 -0.10267639 C38.01997866 0.00069023 44.60178123 2.04037324 50.65098572 7.46311951 C56.45139824 13.57385604 57.60208719 21.44677717 59.12646484 29.43261719 C59.94942192 33.72929868 60.90624925 37.99883915 61.8359375 42.2734375 C62.30290107 44.47260111 62.73776973 46.67881959 63.140625 48.890625 C64.33730201 54.78697902 65.50517169 58.61598036 70.328125 62.3828125 C79.01405402 67.04093019 88.86564053 68.62944043 98.38671875 70.78515625 C105.996176 72.55963053 113.14235281 74.72735383 120.421875 77.55126953 C127.12733724 79.73769613 134.15169823 79.5002022 140.63671875 76.66796875 C147.47330005 72.70106355 152.48609843 66.5140252 157.53515625 60.56640625 C173.39555611 42.29246728 173.39555611 42.29246728 184.22265625 41.19140625 C195.63013522 41.59958346 206.01435564 48.9004116 215.53515625 54.56640625 C216.25026367 54.98792969 216.96537109 55.40945312 217.70214844 55.84375 C238.38789004 68.10058744 238.38789004 68.10058744 241.09375 78.27734375 C244.63957683 96.66543688 232.38655501 119.23366027 226.53515625 136.56640625 C227.14327148 136.85233643 227.75138672 137.1382666 228.37792969 137.43286133 C231.28523164 138.96054388 233.38598886 141.01582581 235.78515625 143.25390625 C238.96891891 146.2063046 242.16221339 149.13065288 245.47265625 151.94140625 C249.11870009 155.10890684 252.55063547 158.47353396 255.97265625 161.87890625 C256.50560303 162.40726074 257.0385498 162.93561523 257.58764648 163.47998047 C262.44737414 168.35940227 262.44737414 168.35940227 262.78515625 173.00390625 C262.53515625 176.56640625 262.53515625 176.56640625 261.257967 178.2618885 C258.23760909 180.54891307 254.48471405 180.05337293 250.83544922 180.08154297 C249.50049911 180.10870392 249.50049911 180.10870392 248.13858032 180.13641357 C245.18480513 180.19054866 242.23149873 180.22065526 239.27734375 180.24609375 C238.26425266 180.25707218 237.25116158 180.26805061 236.20737076 180.27936172 C230.8320984 180.33613131 225.45706117 180.37391743 220.08154297 180.39697266 C214.5676688 180.42440988 209.05697985 180.51695872 203.54418755 180.62528801 C199.27485064 180.69680861 195.00624632 180.71820418 190.73636246 180.72687149 C188.70713385 180.73951939 186.67792299 180.77044211 184.64928818 180.82113266 C170.3534236 181.15491075 161.53097376 178.69408524 150.21270561 169.8348341 C146.56347308 167.07557808 142.46498799 165.03330574 138.41015625 162.94140625 C137.11392334 162.26911987 137.11392334 162.26911987 135.79150391 161.58325195 C113.37245084 150.22911228 89.06907936 142.72440029 64.53515625 137.56640625 C63.64763672 137.36740723 62.76011719 137.1684082 61.84570312 136.96337891 C30.26826209 130.07344761 -5.90074564 130.94263919 -37.46484375 137.56640625 C-38.22345703 137.72125488 -38.98207031 137.87610352 -39.76367188 138.03564453 C-43.65197794 138.85523846 -47.47688463 139.83389117 -51.29248047 140.94189453 C-53.88553201 141.68734585 -56.48945797 142.38859184 -59.09375 143.09375 C-77.87838164 148.27168058 -95.25327345 155.48732349 -112.46484375 164.56640625 C-113.17995117 164.93991211 -113.89505859 165.31341797 -114.63183594 165.69824219 C-144.61077439 181.45522472 -172.46161597 203.97870821 -193.46484375 230.56640625 C-194.32578328 231.62584569 -195.18779939 232.684411 -196.05078125 233.7421875 C-216.41418904 258.90001789 -232.26223413 287.82860783 -242.46484375 318.56640625 C-242.71186035 319.3052002 -242.95887695 320.04399414 -243.21337891 320.80517578 C-250.51795193 343.15374594 -254.44638818 367.25565295 -254.73828125 390.76171875 C-254.75085464 391.70013611 -254.76342804 392.63855347 -254.77638245 393.60540771 C-255.12192778 425.64892313 -252.35751052 454.8888738 -242.46484375 485.56640625 C-242.18914551 486.44006836 -241.91344727 487.31373047 -241.62939453 488.21386719 C-228.87012944 528.25340199 -206.3578595 563.29136284 -177.46484375 593.56640625 C-176.21767578 594.87544922 -176.21767578 594.87544922 -174.9453125 596.2109375 C-169.64103631 601.64886474 -164.08638942 606.59964351 -158.10498047 611.28125 C-156.94132258 612.19305338 -155.7819106 613.11028718 -154.62548828 614.03125 C-134.59799352 629.96187316 -113.11126197 642.81744435 -89.46484375 652.56640625 C-88.73330078 652.8696582 -88.00175781 653.17291016 -87.24804688 653.48535156 C-78.15958154 657.22328627 -69.1553297 660.41943442 -59.6015625 662.7421875 C-56.46484375 663.56640625 -56.46484375 663.56640625 -54.15136719 664.54174805 C-51.21581102 665.66138902 -48.437174 666.24040827 -45.34375 666.78515625 C-44.15974609 666.99527344 -42.97574219 667.20539062 -41.75585938 667.421875 C-40.52544922 667.63457031 -39.29503906 667.84726562 -38.02734375 668.06640625 C-36.83173828 668.27910156 -35.63613281 668.49179687 -34.40429688 668.7109375 C-30.76120275 669.35117938 -27.11350122 669.95879067 -23.46484375 670.56640625 C-22.41135742 670.76202148 -21.35787109 670.95763672 -20.27246094 671.15917969 C-9.80487409 672.9370532 0.62848421 672.86952188 11.22021484 672.82714844 C14.39700511 672.81645054 17.5732271 672.82708365 20.75 672.83984375 C37.00207352 672.85277105 52.24526013 671.33881616 68.16015625 667.87890625 C69.96347412 667.48699097 69.96347412 667.48699097 71.80322266 667.0871582 C99.79356746 660.81742481 125.96877301 649.85661084 150.97265625 635.94140625 C151.59897949 635.59335937 152.22530273 635.2453125 152.87060547 634.88671875 C153.78543701 634.36851562 153.78543701 634.36851562 154.71875 633.83984375 C155.61331657 633.3405838 155.61331657 633.3405838 156.5259552 632.83123779 C158.55796786 631.6388245 158.55796786 631.6388245 160.15974426 630.05743408 C168.00910037 623.28259105 178.18060454 624.73960461 187.92578125 624.83984375 C189.91876219 624.84088223 191.9117452 624.83984188 193.90472412 624.83682251 C198.06733049 624.83700133 202.22915707 624.85773619 206.39160156 624.89404297 C211.72379145 624.93953529 217.0548495 624.94047814 222.38718033 624.92700768 C226.49650112 624.92032414 230.60556422 624.9335934 234.71483612 624.95326614 C236.68119712 624.96095482 238.6475868 624.96327292 240.61396027 624.96009445 C243.35940721 624.95935203 246.10340402 624.98461499 248.84863281 625.01708984 C250.06280884 625.00965759 250.06280884 625.00965759 251.30151367 625.0020752 C255.03521725 625.07250826 257.31795018 625.43364757 260.53118896 627.39761353 C262.53515625 629.56640625 262.53515625 629.56640625 263.28515625 632.81640625 C262.20332465 638.22556424 259.37883559 640.75597673 255.53515625 644.56640625 C254.66632812 645.45972656 253.7975 646.35304688 252.90234375 647.2734375 C244.96089962 655.39787709 236.57208167 662.68411814 227.53515625 669.56640625 C229.25621444 678.58392671 232.22976276 687.17661626 235.09765625 695.87890625 C235.85983618 698.20207308 236.62080017 700.52562901 237.38035583 702.84965515 C237.85050112 704.28708719 238.32231408 705.72397518 238.79603577 707.16023254 C241.41502542 715.14297028 243.62687263 723.65275048 240.09765625 731.75390625 C235.02943493 740.11578714 226.25790703 745.32810444 217.97265625 750.06640625 C217.01391602 750.62030029 216.05517578 751.17419434 215.06738281 751.74487305 C212.23259307 753.36917825 209.3865753 754.97151015 206.53515625 756.56640625 C205.73932129 757.01709473 204.94348633 757.4677832 204.12353516 757.93212891 C188.50387886 766.6896935 188.50387886 766.6896935 180.53515625 764.56640625 C172.13989009 761.55494303 166.93835281 757.48106969 161.53515625 750.56640625 C159.88140053 748.7214182 158.21383076 746.8887511 156.53515625 745.06640625 C152.47671736 740.61501715 148.48397797 736.1149322 144.53515625 731.56640625 C143.22320485 730.0659264 141.91071392 728.56591811 140.59765625 727.06640625 C139.57682292 725.89973958 138.55598958 724.73307292 137.53515625 723.56640625 C133.65048706 724.27402257 129.93468705 725.28483981 126.16015625 726.44140625 C124.53980469 726.93253906 124.53980469 726.93253906 122.88671875 727.43359375 C119.51091433 728.51703638 119.51091433 728.51703638 116.27734375 730.015625 C111.67824965 732.03003076 106.88658213 733.24907779 102.03515625 734.50390625 C101.04572021 734.76187988 100.05628418 735.01985352 99.03686523 735.28564453 C88.3131343 738.00057728 77.45938208 739.86507987 66.53515625 741.56640625 C64.23435848 750.41019367 62.28959555 759.29932307 60.47265625 768.25390625 C59.71976782 771.94249061 58.96543832 775.63069181 58.20214844 779.31713867 C57.79371829 781.30681538 57.39593479 783.29876095 57.01660156 785.29418945 C55.6127125 792.3654415 52.61573383 797.78312212 46.5078125 801.94921875 C44.53514099 802.97152452 42.62481167 803.81256794 40.53515625 804.56640625 C39.70089111 804.90502686 38.86662598 805.24364746 38.00708008 805.5925293 C33.56863159 806.83751706 29.4823059 806.89071728 24.89453125 806.90234375 C23.97230774 806.90900055 23.05008423 806.91565735 22.09991455 806.92251587 C20.15338119 806.93261187 18.20681342 806.93733384 16.26025391 806.93701172 C13.30832678 806.94137202 10.35791177 806.97768844 7.40625 807.015625 C5.50651547 807.02149667 3.60677392 807.02546372 1.70703125 807.02734375 C0.83689392 807.04171478 -0.03324341 807.05608582 -0.92974854 807.07089233 C-9.86835936 807.00547429 -17.28578288 804.14203979 -23.9921875 798.2265625 C-28.41656201 793.2388724 -29.54400537 787.92396145 -30.90234375 781.56640625 C-31.22102417 780.12382446 -31.22102417 780.12382446 -31.54614258 778.65209961 C-33.21979202 770.97458472 -34.72515127 763.26591013 -36.12084961 755.53320312 C-36.98902436 750.77592618 -38.0515326 746.19235421 -39.46484375 741.56640625 C-40.35901001 741.43963501 -40.35901001 741.43963501 -41.27124023 741.31030273 C-60.41398423 738.52772586 -78.88265105 734.18252221 -97.03442383 727.4453125 C-99.87335209 726.41867847 -102.73094042 725.57521231 -105.65234375 724.81640625 C-107.25651042 724.39973958 -108.86067708 723.98307292 -110.46484375 723.56640625 C-112.82132599 726.06423198 -115.17458391 728.5650744 -117.52734375 731.06640625 C-118.18412109 731.7625 -118.84089844 732.45859375 -119.51757812 733.17578125 C-123.94153623 737.88304702 -128.23627134 742.68338842 -132.46484375 747.56640625 C-134.00130555 749.32097777 -135.54215051 751.07173386 -137.08984375 752.81640625 C-137.80398438 753.6259375 -138.518125 754.43546875 -139.25390625 755.26953125 C-144.76728917 760.99721528 -150.51258499 764.38887047 -158.46484375 765.25390625 C-166.00116431 764.98150912 -173.01600954 760.14273264 -179.46484375 756.56640625 C-180.09148926 756.22480469 -180.71813477 755.88320313 -181.36376953 755.53125 C-210.48088776 739.62792438 -210.48088776 739.62792438 -214.46484375 727.56640625 C-216.62298979 714.76278987 -210.68351294 701.28007592 -206.19018555 689.49560547 C-204.97866073 686.27330016 -203.87381285 683.01681277 -202.77734375 679.75390625 C-202.55240234 679.09970703 -202.32746094 678.44550781 -202.09570312 677.77148438 C-201.13215638 674.90427384 -200.46484375 672.61394299 -200.46484375 669.56640625 C-202.37730511 667.70627876 -202.37730511 667.70627876 -204.96484375 665.81640625 C-219.44371325 654.32612392 -234.07594472 640.96599423 -245.12109375 626.078125 C-247.12499329 623.37766449 -249.01047584 620.86432043 -251.46484375 618.56640625 C-255.2240714 618.13501947 -256.14243965 618.28050204 -259.46484375 619.56640625 C-260.41746094 619.86160156 -261.37007813 620.15679688 -262.3515625 620.4609375 C-266.70825458 621.83299485 -270.98734043 623.38258193 -275.2578125 625 C-303.14063308 635.47509431 -303.14063308 635.47509431 -313.65234375 631.12890625 C-322.82004457 625.55809049 -328.05270984 615.77726276 -333.15234375 606.69140625 C-333.78978516 605.58410156 -334.42722656 604.47679687 -335.08398438 603.3359375 C-347.49331866 581.53956294 -347.49331866 581.53956294 -345.46484375 568.56640625 C-342.33146051 559.17987994 -333.71454816 552.83187153 -326.46484375 546.56640625 C-325.71589844 545.90640625 -324.96695313 545.24640625 -324.1953125 544.56640625 C-322.94885638 543.46972796 -321.69778458 542.37826577 -320.44140625 541.29296875 C-317.13737743 538.40684081 -313.90529343 535.44066255 -310.6640625 532.484375 C-308.46484375 530.56640625 -308.46484375 530.56640625 -305.46484375 528.56640625 C-305.03770371 525.06270349 -305.63523346 522.66738798 -307.08984375 519.50390625 C-312.3445387 506.98207999 -315.64258052 493.58783924 -318.60546875 480.36328125 C-319.19909554 477.74053015 -319.82685731 475.15085035 -320.50390625 472.55078125 C-321.46346491 468.75144764 -322.06681017 464.95179853 -322.58984375 461.06640625 C-322.75742187 459.83921875 -322.925 458.61203125 -323.09765625 457.34765625 C-323.21882813 456.42984375 -323.34 455.51203125 -323.46484375 454.56640625 C-324.74101562 454.44136719 -326.0171875 454.31632812 -327.33203125 454.1875 C-332.48165334 453.61408807 -337.51639152 452.66753536 -342.58984375 451.62890625 C-343.44449219 451.45939453 -344.29914063 451.28988281 -345.1796875 451.11523438 C-350.01827265 450.13785504 -354.72192072 448.94483584 -359.46484375 447.56640625 C-361.65019462 447.09793292 -363.83769248 446.63934935 -366.02734375 446.19140625 C-374.28421198 444.28306828 -379.78001665 440.62206132 -384.46484375 433.56640625 C-387.20195146 426.96313959 -387.91324689 420.58198695 -387.86328125 413.5 C-387.86615143 412.58106461 -387.86902161 411.66212921 -387.87197876 410.71534729 C-387.87400464 408.78849667 -387.86857912 406.86162479 -387.85595703 404.93481445 C-387.83986352 402.0075025 -387.85586591 399.08156704 -387.875 396.15429688 C-387.87301767 394.26952824 -387.8691742 392.38476046 -387.86328125 390.5 C-387.86935394 389.6372496 -387.87542664 388.77449921 -387.88168335 387.88560486 C-387.80249811 380.95276466 -386.40567337 374.9046332 -382.90234375 368.87890625 C-373.86718819 360.307092 -363.19325273 358.5358368 -351.40234375 356.25390625 C-349.69302351 355.9059427 -347.98403529 355.55634398 -346.27539062 355.20507812 C-338.6754868 353.66636108 -331.18570334 352.34427008 -323.46484375 351.56640625 C-323.32949219 350.43589844 -323.19414062 349.30539062 -323.0546875 348.140625 C-315.90622062 293.00778312 -315.90622062 293.00778312 -305.46484375 282.56640625 C-304.96258028 280.23148209 -304.96258028 280.23148209 -305.46484375 277.56640625 C-307.59417172 275.01176656 -307.59417172 275.01176656 -310.46484375 272.69140625 C-310.96959229 272.2543335 -311.47434082 271.81726074 -311.99438477 271.36694336 C-313.4743571 270.08821905 -314.96933988 268.82693081 -316.46484375 267.56640625 C-317.77985338 266.42345395 -319.09267836 265.27797842 -320.40234375 264.12890625 C-321.02625 263.5875 -321.65015625 263.04609375 -322.29296875 262.48828125 C-325.63087228 259.53459683 -328.90042933 256.5064712 -332.16577148 253.47290039 C-334.44242073 251.36901734 -336.72284932 249.3684537 -339.18359375 247.48046875 C-343.5838889 243.78844028 -344.98848022 239.19875586 -345.9921875 233.65234375 C-346.65831491 224.23306849 -343.16773168 217.57480629 -338.64550781 209.64111328 C-337.459433 207.55689829 -336.31422234 205.45430467 -335.17578125 203.34375 C-321.09669498 177.46107692 -321.09669498 177.46107692 -309.46484375 173.56640625 C-299.66248888 171.9609812 -291.13655215 175.28747524 -282.10546875 178.59863281 C-278.16147605 180.0440828 -274.20458946 181.4520183 -270.2434082 182.84960938 C-268.21533226 183.56594739 -266.19028498 184.29093091 -264.16870117 185.02539062 C-263.23904541 185.35603516 -262.30938965 185.68667969 -261.3515625 186.02734375 C-260.52873779 186.32431152 -259.70591309 186.6212793 -258.8581543 186.92724609 C-256.2152159 187.63307214 -254.18545007 187.89061487 -251.46484375 187.56640625 C-249.85609154 186.37298426 -249.85609154 186.37298426 -248.65234375 184.5859375 C-248.14485596 183.92658203 -247.63736816 183.26722656 -247.11450195 182.58789062 C-246.57011475 181.85892578 -246.02572754 181.12996094 -245.46484375 180.37890625 C-239.66422053 172.98229817 -233.43176057 166.20362973 -226.77734375 159.56640625 C-225.49633789 158.27827026 -225.49633789 158.27827026 -224.18945312 156.96411133 C-218.25438138 151.08986838 -212.00526115 145.75282923 -205.46484375 140.56640625 C-203.79800833 139.23328388 -202.1312916 137.90001305 -200.46484375 136.56640625 C-201.08062976 133.26089619 -201.8585154 130.10015042 -202.8828125 126.8984375 C-203.16503662 126.01414062 -203.44726074 125.12984375 -203.73803711 124.21875 C-204.1906189 122.81302734 -204.1906189 122.81302734 -204.65234375 121.37890625 C-204.96115479 120.404375 -205.26996582 119.42984375 -205.58813477 118.42578125 C-207.06607565 113.78827408 -208.58210256 109.17804277 -210.26171875 104.609375 C-213.73070073 95.09683885 -217.20151987 85.22660014 -213.609375 75.171875 C-208.88999172 66.74785638 -200.01430797 61.34852279 -191.90234375 56.62890625 C-191.02900391 56.11674561 -190.15566406 55.60458496 -189.25585938 55.0769043 C-187.49232391 54.04822903 -185.72592509 53.02444518 -183.95654297 52.00585938 C-181.70855836 50.70720003 -179.47871408 49.38209514 -177.25 48.05078125 C-168.97217049 43.22204737 -161.65713333 40.34007116 -151.921875 42 C-140.63890072 45.46202549 -132.67176933 57.18950756 -125.62109375 66.015625 C-120.03923153 72.61880622 -114.78058667 77.75669562 -106.02734375 78.87890625 C-98.67244541 79.35857353 -92.99563611 77.58668312 -86.26123047 74.99121094 C-79.91169584 72.5870045 -73.54508462 71.12980692 -66.88452148 69.86035156 C-62.60166584 69.0422935 -58.58619574 68.03072615 -54.46484375 66.56640625 C-53.70300781 66.355 -52.94117188 66.14359375 -52.15625 65.92578125 C-46.51184954 64.31013635 -42.20039796 62.18783228 -38.46484375 57.56640625 C-35.49394974 50.47960347 -34.37623504 42.57865023 -32.96484375 35.06640625 C-28.85381477 13.18512299 -28.85381477 13.18512299 -24.33984375 8.19140625 C-23.82164062 7.58554688 -23.3034375 6.9796875 -22.76953125 6.35546875 C-15.74191886 0.90013574 -8.68384822 -0.04239803 0 0 Z " fill="#7ED956" transform="translate(441.46484375,182.43359375)"/>
<path d="M0 0 C29.7 0 59.4 0 90 0 C95.62457249 13.49897398 95.62457249 13.49897398 97.60522461 18.85180664 C98.05524338 20.06424042 98.50526215 21.27667419 98.96891785 22.52584839 C99.44676041 23.82060516 99.92456798 25.11537484 100.40234375 26.41015625 C100.91732147 27.80006105 101.43253074 29.18988008 101.94795227 30.57962036 C103.04327045 33.53422119 104.13715371 36.48934741 105.2298584 39.44491577 C106.9661422 44.14105368 108.70585731 48.8359156 110.44628906 53.53051758 C111.03921569 55.12992836 111.63214172 56.72933938 112.22506714 58.32875061 C112.51952602 59.12303026 112.81398491 59.91730991 113.11736679 60.73565865 C114.01411395 63.15489926 114.91055365 65.5742536 115.80691528 67.99363708 C121.26798514 82.73238732 126.75454638 97.46153417 132.25 112.1875 C133.13941284 114.5712045 134.02881714 116.95491217 134.91821289 119.33862305 C136.25022606 122.9085512 137.58227468 126.47846608 138.91447449 130.04832458 C142.01950711 138.36950899 145.12113931 146.69195491 148.22117615 155.0150013 C149.71595399 159.02799518 151.21114414 163.04083547 152.70631409 167.05368328 C153.88960262 170.22960287 155.07255087 173.4056482 156.25500488 176.58187866 C161.77598302 191.41142716 167.34078516 206.22261064 173 221 C176.36495446 213.10240145 179.48193734 205.15441971 182.37890625 197.07421875 C182.98544289 195.39420525 182.98544289 195.39420525 183.60423279 193.68025208 C184.69816893 190.64897408 185.78959115 187.61680539 186.88000488 184.58425903 C188.04202949 181.35481369 189.20757829 178.12664123 190.37304688 174.8984375 C190.85110658 173.5741889 191.32916443 172.24993963 191.80722046 170.9256897 C192.04542889 170.26585712 192.28363731 169.60602455 192.52906418 168.92619705 C193.25701831 166.90934656 193.98458961 164.89235832 194.71206665 162.87533569 C199.4498175 149.74116001 204.22279761 136.6198726 209 123.5 C214.15575374 109.33655291 219.30390779 95.17041825 224.4296875 80.99609375 C224.89039637 79.72233915 225.35111008 78.44858631 225.81182861 77.17483521 C227.98295535 71.17183283 230.15273254 65.16834675 232.3203125 59.1640625 C239.46171662 39.41001724 246.73784069 19.71157528 254 0 C282.71 0 311.42 0 341 0 C341 5.61 341 11.22 341 17 C338.61394531 17.14695312 338.61394531 17.14695312 336.1796875 17.296875 C334.0780587 17.44699134 331.9764995 17.59808437 329.875 17.75 C328.82828125 17.811875 327.7815625 17.87375 326.703125 17.9375 C320.63460185 18.39840049 316.61125763 18.90610298 312 23 C306.76614784 29.28062259 306.85100094 36.80133787 306.86628723 44.58195496 C306.86402167 45.43278272 306.86175612 46.28361049 306.85942191 47.16022092 C306.85310432 50.0042074 306.85390984 52.84814596 306.85473633 55.69213867 C306.85174339 57.73426373 306.84834055 59.77638822 306.84455872 61.81851196 C306.83572703 67.36210991 306.83338092 72.90569241 306.83274293 78.44929671 C306.83203182 81.91519249 306.82989632 85.38108434 306.82724571 88.84697914 C306.81799422 100.94559605 306.81391048 113.04420194 306.81469727 125.14282227 C306.81529763 136.40806299 306.80475336 147.67325577 306.7889536 158.93848437 C306.77586136 168.61937885 306.7705141 178.30025768 306.77115268 187.98116094 C306.77140722 193.7589288 306.76858033 199.53665406 306.75797462 205.31441307 C306.74826562 210.75219344 306.74823368 216.18989074 306.75549126 221.6276741 C306.7565337 223.61779337 306.75419454 225.60791788 306.7481308 227.59802818 C306.07517938 243.85094638 306.07517938 243.85094638 310.75 259 C317.34537511 264.86255565 324.9930232 265.099718 333.375 265.5625 C335.89125 265.706875 338.4075 265.85125 341 266 C341 271.61 341 277.22 341 283 C305.36 283 269.72 283 233 283 C233 277.39 233 271.78 233 266 C235.619375 265.896875 238.23875 265.79375 240.9375 265.6875 C248.85377005 265.26611016 255.6994075 264.80901489 261.9375 259.5 C267.90636003 252.26501814 267.15379328 243.89098379 267.12025452 234.86300659 C267.12110894 234.0009999 267.12196337 233.13899321 267.12284368 232.2508651 C267.12447661 229.39362126 267.11901331 226.53643755 267.11352539 223.67919922 C267.11324302 221.6186371 267.11340223 219.55807488 267.1139679 217.49751282 C267.11425392 211.92595975 267.10838867 206.35442836 267.10139394 200.78288031 C267.09512798 194.95194453 267.09455404 189.12100821 267.09336853 183.29006958 C267.09026476 172.25832402 267.08206426 161.22658841 267.07201904 150.19484723 C267.06082824 137.63137323 267.05533998 125.06789874 267.05032361 112.504421 C267.03988084 86.66960849 267.02229991 60.8348048 267 35 C251.47076703 77.00231421 251.47076703 77.00231421 236.21633911 119.10488892 C233.97253759 125.3679083 231.71989076 131.62774121 229.46484375 137.88671875 C229.2363014 138.52110556 229.00775906 139.15549236 228.77229118 139.80910301 C223.3592217 154.82721753 217.82411452 169.80001518 212.28225708 184.77099609 C207.02343108 198.9834294 201.82494311 213.21539327 196.7109375 227.48046875 C196.44790518 228.2139535 196.18487286 228.94743824 195.91386986 229.7031498 C193.33256144 236.90267104 190.75569962 244.10375291 188.18965149 251.30872822 C187.24549574 253.95798855 186.29871916 256.60630777 185.35147476 259.2544651 C184.70634509 261.06128031 184.06500161 262.86944601 183.42379761 264.67765808 C183.03056305 265.77660904 182.63732849 266.87556 182.23217773 268.0078125 C181.89580795 268.95285645 181.55943817 269.89790039 181.21287537 270.87158203 C179.62221457 274.97443708 177.78717637 278.97885316 176 283 C169.4 283 162.8 283 156 283 C153.35469764 277.04806968 150.85030321 271.17088761 148.5859375 265.08203125 C148.26329422 264.22111374 147.94065094 263.36019623 147.60823059 262.47319031 C146.52768883 259.58733165 145.45130354 256.69994176 144.375 253.8125 C143.59171239 251.71738822 142.80825989 249.62233808 142.0246582 247.52734375 C134.48406871 227.35191882 126.99655462 207.15665478 119.50418091 186.96328735 C113.09483583 169.68912367 106.67303186 152.41999765 100.19384766 135.171875 C99.51768673 133.37142726 98.84152781 131.57097877 98.16538811 129.77052307 C97.53570645 128.09421087 96.90579553 126.41798479 96.27575874 124.74180603 C89.34585091 106.30249874 82.47533069 87.84170163 75.62997055 69.37088013 C74.31110616 65.81254268 72.99164302 62.25442726 71.67224121 58.69628906 C69.1142656 51.79773426 66.55691367 44.89894849 64 38 C63.92988156 64.94710539 63.87699788 91.89419707 63.84456348 118.84137535 C63.82910255 131.35375394 63.80802772 143.8660758 63.77368164 156.37841797 C63.74375572 167.28569916 63.72441938 178.19293927 63.71773452 189.10026038 C63.7138277 194.87420783 63.70466204 200.64803774 63.68280983 206.42194748 C63.66239434 211.86048293 63.65617648 217.29885281 63.66067696 222.73742294 C63.65985402 224.72957764 63.65391869 226.72173808 63.64238358 228.71385956 C63.05084141 244.72143339 63.05084141 244.72143339 69.3125 258.9375 C76.51254468 264.46311569 83.6363921 265.08002784 92.375 265.5625 C94.89125 265.706875 97.4075 265.85125 100 266 C100 271.61 100 277.22 100 283 C67 283 34 283 0 283 C0 277.39 0 271.78 0 266 C1.41152344 265.90203125 2.82304688 265.8040625 4.27734375 265.703125 C6.16413033 265.55293303 8.05084561 265.40184341 9.9375 265.25 C11.32678711 265.1571875 11.32678711 265.1571875 12.74414062 265.0625 C20.54585822 264.40551326 27.01609495 262.66646834 32.9375 257.375 C38.90608253 247.60822859 37.29010434 234.76988631 37.2746582 223.73022461 C37.27901008 221.67441117 37.28419481 219.61859935 37.29014587 217.56278992 C37.30349326 212.0009533 37.30411949 206.43918481 37.30158257 200.87733531 C37.30051036 196.22762718 37.30540242 191.57793269 37.310188 186.92822748 C37.32126759 175.95824472 37.32172874 164.9882962 37.31567383 154.01831055 C37.30962922 142.7120194 37.32196101 131.40585255 37.3432439 120.09958261 C37.36086764 110.37871825 37.36686019 100.65789343 37.36360615 90.93701369 C37.36179502 85.13699527 37.36441298 79.3370656 37.37832069 73.53706169 C37.39090758 68.08442169 37.38894667 62.63197552 37.37590981 57.17933846 C37.37354669 55.18192606 37.37626918 53.18449997 37.38453293 51.18710327 C37.3950241 48.45364921 37.38688088 45.72084277 37.3742218 42.9874115 C37.38528323 41.81131794 37.38528323 41.81131794 37.39656812 40.61146492 C37.33365631 34.12289211 36.11879582 27.84941507 32.1875 22.5625 C25.32592934 17.6613781 16.19871646 17.86320913 8.0625 17.4375 C5.401875 17.293125 2.74125 17.14875 0 17 C0 11.39 0 5.78 0 0 Z " fill="#1D3115" transform="translate(617,445)"/>
<path d="M0 0 C18.32621024 -0.06991106 36.65237366 -0.12321866 54.97868919 -0.15543652 C63.490885 -0.17080375 72.00299564 -0.19169505 80.51513672 -0.22631836 C87.94774302 -0.25653582 95.38028756 -0.27564833 102.81295359 -0.28226548 C106.73631558 -0.28612397 110.65950112 -0.29497016 114.58280563 -0.31719017 C151.89784205 -0.52007593 189.77090757 0.33643196 218 28 C218.69996094 28.66386719 219.39992188 29.32773437 220.12109375 30.01171875 C233.54965962 43.75440312 238.25785143 62.79339182 238.2487793 81.44750977 C237.96020154 103.15312437 229.73833259 122.02054467 215 138 C191.9728448 159.36754041 163.60440464 163.19641705 133.3984375 163.09765625 C131.70879153 163.09578778 130.019145 163.09436591 128.32949829 163.09336853 C123.91386379 163.0895771 119.49826294 163.07977618 115.0826416 163.06866455 C110.56421361 163.05837734 106.04578011 163.05385535 101.52734375 163.04882812 C92.6848805 163.03815041 83.84244446 163.02111523 75 163 C75.08446753 174.35299316 75.17937598 185.70584679 75.28752708 197.05864048 C75.33742253 202.33048953 75.3837532 207.6023192 75.421875 212.87426758 C75.45881303 217.96422804 75.50519616 223.05402364 75.55806351 228.1438427 C75.57656221 230.08341511 75.59168678 232.0230228 75.60334396 233.96264839 C75.62028392 236.68433554 75.6493375 239.40564885 75.68115234 242.12719727 C75.68331253 242.92489532 75.68547272 243.72259338 75.68769836 244.54446411 C75.77739545 250.5711617 76.38810664 255.86661173 80.125 260.8125 C86.14990638 265.3966679 93.69315301 265.35562315 101 265.625 C101.87011719 265.66367187 102.74023438 265.70234375 103.63671875 265.7421875 C105.75750486 265.83540887 107.87872185 265.91874136 110 266 C110 271.61 110 277.22 110 283 C73.7 283 37.4 283 0 283 C0 277.39 0 271.78 0 266 C1.50691406 265.89042969 3.01382813 265.78085937 4.56640625 265.66796875 C6.56515469 265.50844423 8.56384997 265.34825273 10.5625 265.1875 C11.55314453 265.11724609 12.54378906 265.04699219 13.56445312 264.97460938 C20.38773087 264.40789195 26.0360941 263.64348364 31.3125 258.9375 C35.1349807 252.28355211 35.29642981 244.32471755 35.25396729 236.802948 C35.25864726 235.50002876 35.25864726 235.50002876 35.26342177 234.17078793 C35.27133223 231.29070799 35.26510555 228.41084284 35.25878906 225.53076172 C35.26150198 223.45362221 35.26506459 221.37648366 35.26940918 219.29934692 C35.27849855 213.6797223 35.27500348 208.06017141 35.26865101 202.44054556 C35.26357448 196.55062256 35.26828693 190.66070572 35.27142334 184.77078247 C35.27505759 174.8834724 35.27027747 164.99619225 35.26074219 155.10888672 C35.24985267 143.68558414 35.25338902 132.26235294 35.264395 120.83905208 C35.27347608 111.01969222 35.2747493 101.20035381 35.26951766 91.3809911 C35.26640327 85.52122333 35.26597419 79.66148909 35.27259064 73.80172348 C35.2783756 68.29412627 35.27434607 62.78662096 35.26280212 57.27903366 C35.26016197 55.2602402 35.26090961 53.24143898 35.26532745 51.22264862 C35.2708096 48.46269022 35.26391648 45.70302458 35.25396729 42.94308472 C35.26065945 41.75094905 35.26065945 41.75094905 35.26748681 40.53472984 C35.2244335 34.35808331 34.41258223 28.76374785 31.5625 23.1875 C23.39426925 16.21462009 10.08426821 17.37910783 0 17 C0 11.39 0 5.78 0 0 Z " fill="#1D3115" transform="translate(981,445)"/>
<path d="M0 0 C35.97 0 71.94 0 109 0 C109 5.61 109 11.22 109 17 C106.545625 17.12375 104.09125 17.2475 101.5625 17.375 C89.52967579 17.74005462 89.52967579 17.74005462 79.27044296 23.34716988 C73.90788303 30.3237921 73.43094011 38.41747795 73.54589844 46.87548828 C73.54531433 48.0181163 73.54473022 49.16074432 73.54412842 50.33799744 C73.54689597 54.08242081 73.57792645 57.82602967 73.609375 61.5703125 C73.61684208 64.17918462 73.6225328 66.78806238 73.62652588 69.39694214 C73.63890563 75.54141765 73.6716584 81.68560486 73.71192384 87.82995403 C73.7567985 94.83122102 73.77866781 101.83250255 73.79870558 108.8338778 C73.84039633 123.22273932 73.91064974 137.61135939 74 152 C75.75939653 150.25417499 77.51692206 148.50653234 79.2734375 146.7578125 C79.7677124 146.26772705 80.2619873 145.7776416 80.77124023 145.27270508 C84.09683781 141.95816519 87.21284596 138.53039589 90.2578125 134.9609375 C92.97166122 131.90633647 95.90863752 129.08338457 98.81640625 126.21484375 C100.77974671 124.22340539 102.62079669 122.18697422 104.4375 120.0625 C107.15619248 116.8896408 110.02751675 113.93661618 113 111 C115.95183025 108.08373397 118.80388859 105.15394165 121.5 102 C124.98452107 97.92376781 128.78081981 94.20449127 132.59375 90.4375 C134.65449345 88.34999365 136.59515626 86.22830777 138.5 84 C141.98452107 79.92376781 145.78081981 76.20449127 149.59375 72.4375 C151.65449345 70.34999365 153.59515626 68.22830777 155.5 66 C158.19611141 62.84605835 161.04816975 59.91626603 164 57 C167.51833667 53.51869845 170.85930854 49.97503306 174.0703125 46.2109375 C175.62100623 44.43423172 177.19636003 42.70030483 178.8046875 40.9765625 C179.3004126 40.44401855 179.7961377 39.91147461 180.30688477 39.36279297 C181.29071425 38.30892925 182.27804398 37.2583194 183.26928711 36.21142578 C187.03483833 32.16711816 189.31203889 29.36116667 189.125 23.75 C189.08375 22.5125 189.0425 21.275 189 20 C181.02236769 18.10669095 173.18055666 17.48120922 165 17 C165 11.39 165 5.78 165 0 C198.66 0 232.32 0 267 0 C267 5.61 267 11.22 267 17 C263.473125 17.37125 263.473125 17.37125 259.875 17.75 C247.20210348 19.280003 236.3180073 22.22453891 226 30 C225.10023438 30.67804688 224.20046875 31.35609375 223.2734375 32.0546875 C215.20835707 38.54505566 207.94097856 45.87980822 200.625 53.1875 C200.10289948 53.70851288 199.58079895 54.22952576 199.0428772 54.7663269 C197.51711305 56.29245075 195.99589691 57.82294565 194.4765625 59.35546875 C193.59049316 60.24903076 192.70442383 61.14259277 191.79150391 62.06323242 C189.69443627 64.22562766 187.71773816 66.4679786 185.75439453 68.75219727 C181.54505353 73.59889398 177.01261247 78.0943335 172.453125 82.609375 C171.56010681 83.49860657 170.66708862 84.38783813 169.74700928 85.30401611 C166.91709917 88.12179211 164.0840536 90.93639325 161.25 93.75 C157.50218014 97.47092655 153.75798344 101.19545339 150.015625 104.921875 C149.15624329 105.77295837 148.29686157 106.62404175 147.41143799 107.50091553 C146.61340759 108.2956427 145.8153772 109.09036987 144.99316406 109.90917969 C144.29257874 110.6045282 143.59199341 111.29987671 142.87017822 112.01629639 C140.94773458 113.96839879 140.94773458 113.96839879 139.37542725 116.25567627 C138.92153625 116.8313031 138.46764526 117.40692993 138 118 C137.34 118 136.68 118 136 118 C141.0637661 125.11259251 146.32018464 132.06648002 151.625 139 C156.81585934 145.78651891 161.95178854 152.60670536 167 159.5 C172.56823185 167.09983035 178.24580291 174.60989611 183.96875 182.09375 C188.51234123 188.03806299 193.01918175 194.00824937 197.5 200 C204.68952943 209.60888127 211.95140692 219.16125236 219.24169922 228.69384766 C220.79531244 230.73153586 222.33962761 232.7756968 223.87890625 234.82421875 C233.8469774 248.051703 244.16311335 261.39509609 261.42236328 264.42529297 C263.94631388 264.73153819 266.4664635 264.97539902 269 265.1875 C270.30517578 265.3102832 270.30517578 265.3102832 271.63671875 265.43554688 C273.75691206 265.63358691 275.87835199 265.81820556 278 266 C278 271.61 278 277.22 278 283 C238.4 283 198.8 283 158 283 C158 277.39 158 271.78 158 266 C159.29035156 265.96261719 160.58070313 265.92523437 161.91015625 265.88671875 C163.62763149 265.82102298 165.34507815 265.7545769 167.0625 265.6875 C167.91005859 265.66494141 168.75761719 265.64238281 169.63085938 265.61914062 C174.95356335 265.39307984 180.98651617 265.01348383 185 261 C186.70898672 249.67796296 177.76989795 240.5248069 171.4375 231.9375 C169.5860287 229.45171231 167.7281403 226.97088397 165.8671875 224.4921875 C162.86874577 220.49008327 159.90286321 216.46414237 156.9375 212.4375 C156.35798584 211.65173584 155.77847168 210.86597168 155.18139648 210.05639648 C150.71235527 203.98926259 146.29650461 197.88500269 141.89428711 191.76928711 C137.39579382 185.52777235 132.83383461 179.33454986 128.26123047 173.1472168 C122.1086532 164.81210825 116.04752996 156.41150912 110 148 C107.09778672 149.31270914 105.03287708 150.71898982 102.79296875 152.9765625 C102.2100708 153.56074951 101.62717285 154.14493652 101.02661133 154.74682617 C100.41970459 155.36662354 99.81279785 155.9864209 99.1875 156.625 C98.55803467 157.26091064 97.92856934 157.89682129 97.2800293 158.55200195 C93.67376145 162.2181637 90.16007246 165.92140734 86.90837097 169.90969849 C85 172 85 172 82.3105011 174.25973511 C76.76228737 179.07380603 73.35148579 182.32808913 72.71948242 189.98095703 C72.70782992 192.57361228 72.7559687 195.16704104 72.85546875 197.7578125 C72.87096265 199.15538288 72.88180123 200.55301173 72.88825989 201.95065308 C72.91864966 205.60217724 73.01660279 209.24886187 73.12811279 212.89868164 C73.20723063 215.86466535 73.23777517 218.83021752 73.26580334 221.79706001 C72.38798872 241.03085342 72.38798872 241.03085342 77.75 258.875 C84.31092513 265.07142929 92.35413455 265.12153821 100.875 265.5625 C103.55625 265.706875 106.2375 265.85125 109 266 C109 271.61 109 277.22 109 283 C73.03 283 37.06 283 0 283 C0 277.39 0 271.78 0 266 C1.43472656 265.89042969 2.86945313 265.78085937 4.34765625 265.66796875 C6.25265654 265.50843671 8.15760172 265.34824557 10.0625 265.1875 C11.00544922 265.11724609 11.94839844 265.04699219 12.91992188 264.97460938 C22.19969857 264.19540118 22.19969857 264.19540118 29.7421875 259.1328125 C30.11601563 258.47023438 30.48984375 257.80765625 30.875 257.125 C31.26429687 256.46757813 31.65359375 255.81015625 32.0546875 255.1328125 C34.31299279 250.03762784 34.14626255 244.77759413 34.14044189 239.29705811 C34.14341302 238.42117232 34.14638414 237.54528653 34.1494453 236.64285874 C34.1581162 233.7081852 34.15963918 230.77355252 34.16113281 227.83886719 C34.16576211 225.73453179 34.17078692 223.63019723 34.17617798 221.52586365 C34.1892929 215.80879593 34.19574513 210.09173995 34.20018864 204.37465954 C34.20312073 200.80208109 34.20722579 197.22950585 34.21169281 193.65692902 C34.22536514 182.47684232 34.23503318 171.29676294 34.2388947 160.11666846 C34.24337542 147.21510677 34.26092515 134.31365102 34.2898953 121.41212153 C34.31151695 111.43658886 34.32159924 101.46108599 34.32293582 91.48553014 C34.32398346 85.52893452 34.32988282 79.57243854 34.34775543 73.61586761 C34.36424445 68.011463 34.36638749 62.40723282 34.35761642 56.80281258 C34.35684651 54.74896083 34.36118273 52.69509966 34.37107468 50.64127159 C34.38381356 47.83093329 34.37790676 45.02121104 34.36749268 42.21087646 C34.37554908 41.40394875 34.38360548 40.59702104 34.39190602 39.76564097 C34.33499322 33.16942108 33.32872899 26.59486945 28.8125 21.5625 C22.46859924 18.03811069 15.60384577 17.65267475 8.5 17.375 C7.67757813 17.33632813 6.85515625 17.29765625 6.0078125 17.2578125 C4.0055299 17.16468308 2.00279738 17.08131015 0 17 C0 11.39 0 5.78 0 0 Z " fill="#4A5245" transform="translate(1219,445)"/>
<path d="M0 0 C0.11214844 -0.85851562 0.22429687 -1.71703125 0.33984375 -2.6015625 C1.40505397 -8.08518905 3.78285588 -12.88351358 6 -18 C11.28 -18 16.56 -18 22 -18 C24.72777356 -7.85697377 27.44992709 2.28751575 30.16236782 12.43465328 C31.42224217 17.14690906 32.68451464 21.8584943 33.95239258 26.56860352 C35.17712353 31.11878282 36.39539148 35.67064844 37.60930061 40.22372627 C38.0722749 41.95575402 38.53752835 43.68717428 39.00515556 45.41795158 C39.66249605 47.85247759 40.31151084 50.28908774 40.95874023 52.72631836 C41.15151047 53.43266922 41.3442807 54.13902008 41.54289246 54.86677551 C42.86163076 59.88106871 43.54776031 64.83761563 44 70 C41.58570231 70.84080019 39.16896007 71.67281402 36.75 72.5 C35.72712891 72.85771484 35.72712891 72.85771484 34.68359375 73.22265625 C31.23586997 74.39421287 28.68297096 75 25 75 C24.21689453 73.23849609 24.21689453 73.23849609 23.41796875 71.44140625 C16.47037288 56.12529739 8.21613528 41.63728303 -3 29 C-3.73347656 28.17242187 -4.46695313 27.34484375 -5.22265625 26.4921875 C-19.90928988 10.87420637 -41.61179253 0.54404911 -63.078125 -0.23046875 C-91.42674734 -0.83299785 -114.35628738 7.97810216 -135 27.625 C-151.5062369 44.5199238 -161.92813445 66.10027262 -167 89 C-167.15098145 89.66805664 -167.30196289 90.33611328 -167.45751953 91.02441406 C-175.35401825 127.26142112 -168.01468593 167.82030932 -148 199 C-138.53639 213.31763874 -126.91008328 224.59325091 -112 233 C-110.90171875 233.63679688 -109.8034375 234.27359375 -108.671875 234.9296875 C-86.02166923 247.20293853 -60.56444632 248.66180433 -36 242 C-21.31933656 237.58831778 -3.67820939 229.16968206 4.3125 215.4375 C8.90916491 204.59617865 9.51513135 192.66527949 9.44604492 181.05615234 C9.43747463 178.86852443 9.46654748 176.6834705 9.49804688 174.49609375 C9.54640086 165.00770754 9.27999063 154.39517187 3.13256836 146.64599609 C-3.91196162 139.5494944 -13.59394894 139.69127728 -23.0625 139.375 C-24.50399414 139.31699219 -24.50399414 139.31699219 -25.97460938 139.2578125 C-28.31612867 139.1646177 -30.65803662 139.08127361 -33 139 C-33 133.06 -33 127.12 -33 121 C4.95 121 42.9 121 82 121 C82 126.94 82 132.88 82 139 C80.56527344 139.03738281 79.13054687 139.07476563 77.65234375 139.11328125 C75.74737096 139.17896997 73.84242418 139.24541629 71.9375 139.3125 C70.52307617 139.34633789 70.52307617 139.34633789 69.08007812 139.38085938 C63.34751573 139.60057431 59.05127336 140.21148414 54 143 C49.84890814 148.02500593 48.89228512 152.44460519 48.84178162 158.81526184 C48.8319928 159.75610626 48.82220398 160.69695068 48.81211853 161.66630554 C48.80636307 162.68626114 48.8006076 163.70621674 48.79467773 164.75708008 C48.78477814 165.84045654 48.77487854 166.92383301 48.76467896 168.04003906 C48.73312308 171.61651432 48.7083298 175.19300286 48.68359375 178.76953125 C48.66301913 181.251036 48.64202252 183.73253728 48.62062073 186.21403503 C48.56545261 192.74223015 48.51602008 199.27045661 48.46777344 205.79870605 C48.41803643 212.46153907 48.361854 219.12431992 48.30664062 225.78710938 C48.19912335 238.85803549 48.09816428 251.92900029 48 265 C41.07 265 34.14 265 27 265 C23.7 257.41 20.4 249.82 17 242 C12.8694153 243.65223388 9.8105136 245.30082516 6.125 247.6875 C-25.87402089 267.71139921 -68.35238508 276.13332494 -105.3515625 267.76660156 C-107.57928644 267.21342728 -109.78991318 266.61959817 -112 266 C-112.6698291 265.81808105 -113.3396582 265.63616211 -114.02978516 265.44873047 C-145.73116992 256.60458947 -174.66809541 233.82205781 -192 206 C-192.35884277 205.42685059 -192.71768555 204.85370117 -193.08740234 204.26318359 C-213.3530079 171.41513699 -220.29474764 128.56857354 -212.375 90.625 C-211.68082568 87.71612347 -210.86523506 84.86193136 -210 82 C-209.70246826 80.91114502 -209.70246826 80.91114502 -209.39892578 79.80029297 C-199.60063349 44.01353092 -174.09081744 12.37498937 -142 -6 C-132.08801056 -11.54641105 -121.98976837 -16.00881184 -111 -19 C-110.30583984 -19.19609863 -109.61167969 -19.39219727 -108.89648438 -19.59423828 C-71.55379894 -29.76122499 -31.37591761 -22.13339924 0 0 Z " fill="#1D3115" transform="translate(530,463)"/>
<path d="M0 0 C87.27884615 0 87.27884615 0 105.12890625 17.03125 C116.74906067 29.20264514 120.56220259 44.56781036 120.48999023 61.03222656 C119.93654159 77.00268959 113.92203342 92.41907069 103.01171875 104.1875 C76.58150594 128.00035193 29.78790535 119 0 119 C0 79.73 0 40.46 0 0 Z " fill="#FEFEFE" transform="translate(1056,467)"/>
<path d="M0 0 C5.28 0 10.56 0 16 0 C16 22.44 16 44.88 16 68 C35.8 68 55.6 68 76 68 C76 74.6 76 81.2 76 88 C75 89 75 89 72.63987732 89.12025452 C71.59396927 89.11803391 70.54806122 89.11581329 69.47045898 89.11352539 C68.28931015 89.11344986 67.10816132 89.11337433 65.89122009 89.11329651 C64.6058284 89.10813522 63.32043671 89.10297394 61.99609375 89.09765625 C60.0338662 89.09553383 60.0338662 89.09553383 58.03199768 89.09336853 C54.54837141 89.0895441 51.06478661 89.07971446 47.58117676 89.06866455 C44.02873292 89.05844882 40.47628241 89.05387056 36.92382812 89.04882812 C29.94920168 89.03809212 22.97460283 89.0210166 16 89 C16.0606081 106.83763627 16.13815985 124.67511532 16.23571491 142.51258755 C16.28062232 150.79540672 16.32004857 159.07818339 16.34643555 167.36108398 C16.36945666 174.58302201 16.40290041 181.80482494 16.44870156 189.02665573 C16.47257852 192.84825471 16.4913434 196.66972035 16.49761391 200.49139214 C16.50368994 204.09396114 16.52377966 207.69618922 16.55427551 211.29863167 C16.56715969 213.23990021 16.56549271 215.18124856 16.5632782 217.12255859 C16.653717 225.58730397 17.24493166 234.17738392 23.390625 240.6484375 C30.30657397 246.45649173 37.61920596 248.12016368 46.5703125 247.61328125 C58.10174563 246.38018113 69.45957544 241.08212766 78.87109375 234.48046875 C80.85880563 233.09818838 82.82786247 232.05581734 85 231 C86.4465918 248.63111026 86.4465918 248.63111026 83.5234375 253.41796875 C81.09210764 255.04340838 78.74638801 255.98970853 76 257 C74.2525842 257.89072169 72.5053415 258.78180758 70.76171875 259.67993164 C53.9172588 268.11741928 32.46331452 272.71672725 14 267.375 C0.99591076 262.69750872 -9.54870196 256.06157102 -15.75 243.4375 C-19.26802591 232.84789149 -19.29266819 220.93198686 -19.22705078 209.90454102 C-19.22734283 208.58561859 -19.22763489 207.26669617 -19.22793579 205.9078064 C-19.22850178 202.34470181 -19.21687207 198.78173618 -19.20278788 195.21866345 C-19.19015247 191.47512372 -19.18910005 187.73157962 -19.18673706 183.98802185 C-19.18055947 176.92300571 -19.16419991 169.85805263 -19.14403808 162.79306406 C-19.12156213 154.739674 -19.11065646 146.68628068 -19.10064721 138.63286698 C-19.07982967 122.08853542 -19.04320092 105.54429055 -19 89 C-30.55 89 -42.1 89 -54 89 C-54 83.06 -54 77.12 -54 71 C-51.751875 70.29875 -49.50375 69.5975 -47.1875 68.875 C-31.19593902 63.62191785 -19.02421343 55.12255609 -11 40 C-4.7811608 27.37123996 -1.87034839 13.87175058 0 0 Z " fill="#4B5346" transform="translate(1654,464)"/>
<path d="M0 0 C1.11618965 0.00893532 1.11618965 0.00893532 2.25492859 0.01805115 C4.08228526 0.033538 5.9095693 0.05721619 7.73681641 0.08251953 C7.73920476 0.95220147 7.74159311 1.82188341 7.74405384 2.71791935 C7.80320217 23.88388458 7.87875126 45.04973593 7.97253132 66.21557713 C8.01748769 76.45124342 8.05690276 86.68687492 8.08325195 96.92260742 C8.10623327 105.84456998 8.13963287 114.76642245 8.18551797 123.68829769 C8.20944831 128.4119158 8.22817835 133.13542491 8.23443031 137.85910225 C8.24048198 142.30703569 8.2604849 146.75469021 8.29109192 151.20252037 C8.2998708 152.83308093 8.30359503 154.46367794 8.30182457 156.09426117 C8.30016718 158.32545491 8.31690946 160.55580302 8.33808899 162.78688049 C8.34269795 164.0340664 8.34730692 165.28125231 8.35205555 166.56623173 C8.89363962 171.51570992 10.46289704 175.33677817 13.42431641 179.39501953 C19.16398528 183.58342654 26.88523934 183.45492683 33.73681641 183.70751953 C35.04199219 183.76552734 35.04199219 183.76552734 36.37353516 183.82470703 C38.49432127 183.9179284 40.61553826 184.00126089 42.73681641 184.08251953 C42.73681641 189.69251953 42.73681641 195.30251953 42.73681641 201.08251953 C8.08681641 201.08251953 -26.56318359 201.08251953 -62.26318359 201.08251953 C-62.26318359 195.47251953 -62.26318359 189.86251953 -62.26318359 184.08251953 C-59.66443359 183.95876953 -57.06568359 183.83501953 -54.38818359 183.70751953 C-42.90784238 183.2462341 -42.90784238 183.2462341 -32.26318359 179.39501953 C-26.89820867 173.19176728 -27.95771496 164.52381744 -27.94433594 156.8034668 C-27.93502651 155.46254377 -27.92485634 154.12162648 -27.91389465 152.78071594 C-27.88669484 149.15729121 -27.87147514 145.53390514 -27.85846663 141.9104054 C-27.84279202 138.11738501 -27.81601569 134.32444307 -27.79043579 130.53147888 C-27.74372443 123.35646663 -27.70694344 116.18143951 -27.67376292 109.00635332 C-27.6354874 100.83459294 -27.58609152 92.66291149 -27.53577876 84.49121773 C-27.4325726 67.68836972 -27.34474336 50.88548868 -27.26318359 34.08251953 C-38.81318359 34.08251953 -50.36318359 34.08251953 -62.26318359 34.08251953 C-62.26318359 28.47251953 -62.26318359 22.86251953 -62.26318359 17.08251953 C-60.95607422 16.86337891 -59.64896484 16.64423828 -58.30224609 16.41845703 C-44.96143148 14.08940771 -31.50992485 11.39847616 -19.37255859 5.14111328 C-18.74140137 4.81925049 -18.11024414 4.4973877 -17.45996094 4.16577148 C-15.77833342 3.28123812 -14.12459667 2.3442144 -12.47412109 1.40283203 C-8.4389657 -0.33110834 -4.30892984 -0.06549323 0 0 Z " fill="#4A5246" transform="translate(1567.26318359375,526.91748046875)"/>
<path d="M0 0 C4.84008827 2.73130383 7.82974455 6.24995442 10.625 11 C11.00011719 11.63292969 11.37523437 12.26585937 11.76171875 12.91796875 C13.93548959 18.16059254 13.24876894 24.92055741 11.5625 30.25 C8.72390094 36.66313122 3.98222041 40.67980165 -2.375 43.4375 C-9.9415893 46.08523562 -16.16984606 45.25351558 -23.375 42 C-28.78182574 38.46476778 -32.31075292 34.10527315 -34.375 28 C-35.28030979 21.61902617 -35.62363592 15.23123526 -32.3125 9.5 C-24.25740867 -1.13363332 -12.77431029 -5.73974305 0 0 Z " fill="#4A5246" transform="translate(1568.375,438)"/>
<path d="M0 0 C4.29 0 8.58 0 13 0 C17.02117705 10.32527018 21.03329144 20.65365417 25 31 C25.19110352 30.45174561 25.38220703 29.90349121 25.57910156 29.33862305 C28.99706069 19.53821137 32.41837603 9.74201719 36 0 C40.29 0 44.58 0 49 0 C49 0.66 49 1.32 49 2 C47.68 2.33 46.36 2.66 45 3 C45 14.55 45 26.1 45 38 C46.32 38.33 47.64 38.66 49 39 C49 39.66 49 40.32 49 41 C44.05 41 39.1 41 34 41 C34 40.34 34 39.68 34 39 C35.32 38.34 36.64 37.68 38 37 C38 26.77 38 16.54 38 6 C35.58534338 13.4006627 35.58534338 13.4006627 33.18481445 20.8059082 C30.88907745 27.76654491 28.17481386 34.39451141 25 41 C24.01 41 23.02 41 22 41 C18 30.33333333 14 19.66666667 10 9 C10 18.57 10 28.14 10 38 C11.32 38.33 12.64 38.66 14 39 C14 39.66 14 40.32 14 41 C9.38 41 4.76 41 0 41 C0 40.34 0 39.68 0 39 C1.98 38.505 1.98 38.505 4 38 C4 26.45 4 14.9 4 3 C2.68 2.67 1.36 2.34 0 2 C0 1.34 0 0.68 0 0 Z " fill="#51594D" transform="translate(1798,398)"/>
<path d="M0 0 C10.23 0 20.46 0 31 0 C34.375 9 34.375 9 33 13 C32.4225 12.236875 31.845 11.47375 31.25 10.6875 C26.78987621 5.36012992 25.40162839 5.05737548 18 4 C18.33 15.55 18.66 27.1 19 39 C20.32 39.33 21.64 39.66 23 40 C23 40.66 23 41.32 23 42 C18.05 42 13.1 42 8 42 C8 41.34 8 40.68 8 40 C9.98 39.505 9.98 39.505 12 39 C12.33 27.45 12.66 15.9 13 4 C4.29116336 4.9185361 4.29116336 4.9185361 1.625 9.125 C1.08875 10.07375 0.5525 11.0225 0 12 C-0.99 12 -1.98 12 -3 12 C-2.68950274 10.56206608 -2.3765224 9.1246682 -2.0625 7.6875 C-1.88847656 6.88699219 -1.71445313 6.08648437 -1.53515625 5.26171875 C-1 3 -1 3 0 0 Z " fill="#4C5448" transform="translate(1763,397)"/>
<path d="M0 0 C0.33 0 0.66 0 1 0 C1 69.96 1 139.92 1 212 C0.67 212 0.34 212 0 212 C-0.00634791 210.42710598 -0.00634791 210.42710598 -0.01282406 208.82243633 C-0.11591136 183.33511314 -0.22464603 157.84781884 -0.33933926 132.36054516 C-0.39467206 120.03521366 -0.44815417 107.70987927 -0.49731445 95.38452148 C-0.54015557 84.64465902 -0.5864334 73.90481788 -0.63687855 63.16498834 C-0.66348005 57.47571851 -0.68833317 51.7864529 -0.70907402 46.09715843 C-0.72863461 40.74648586 -0.75277671 35.39585387 -0.78049088 30.04521751 C-0.78986436 28.07755265 -0.79753857 26.10987887 -0.80341911 24.14220047 C-0.8116752 21.46321971 -0.82595054 18.78433757 -0.84178162 16.10539246 C-0.84275972 15.32037753 -0.84373783 14.5353626 -0.84474558 13.72655934 C-0.86898943 10.55312286 -0.98894004 8.03317987 -2 5 C-1.0625 2.3125 -1.0625 2.3125 0 0 Z " fill="#F3F5F2" transform="translate(884,477)"/>
</svg>
